<svg width="51" height="69" viewBox="0 0 51 69" fill="none" xmlns="http://www.w3.org/2000/svg">
<rect x="4" y="18" width="47" height="45" rx="5" fill="white"/>
<path d="M35.6689 40.4619L35.4053 42H24.668L24.917 40.4619H35.6689ZM28.8867 20.6719L25.1953 42H23.4229L27.1143 20.6719H28.8867Z" fill="black"/>
<path d="M38.6689 58.4619L38.4053 60H27.668L27.917 58.4619H38.6689ZM31.8867 38.6719L28.1953 60H26.4229L30.1143 38.6719H31.8867Z" fill="black"/>
<g style="mix-blend-mode:hard-light" opacity="0.7">
<path d="M34.7227 32.0312C33.707 31.2109 32.6816 30.5957 31.6465 30.1855C30.6113 29.7754 29.4199 29.5703 28.0723 29.5703C26.6074 29.5703 25.3086 29.8535 24.1758 30.4199C23.0625 30.9863 22.125 31.7578 21.3633 32.7344C20.6016 33.6914 20.0156 34.8047 19.6055 36.0742C19.2148 37.3438 19.0195 38.6914 19.0195 40.1172C19.0195 40.7812 19.0586 41.5527 19.1367 42.4316C19.2344 43.291 19.4199 44.1895 19.6934 45.127C19.9668 46.0449 20.3574 46.9531 20.8652 47.8516C21.3926 48.7305 22.0762 49.5312 22.916 50.2539C23.7754 50.957 24.8301 51.5234 26.0801 51.9531C27.3496 52.3828 28.8535 52.5977 30.5918 52.5977H34.957V55H30.5918C28.2676 55 26.2168 54.8242 24.4395 54.4727C22.6816 54.1016 21.1484 53.5938 19.8398 52.9492C18.5508 52.3047 17.4668 51.5332 16.5879 50.6348C15.7285 49.7168 15.0352 48.7109 14.5078 47.6172C13.9805 46.5039 13.6094 45.3223 13.3945 44.0723C13.1797 42.8223 13.0723 41.5234 13.0723 40.1758C13.0723 38.3984 13.3848 36.709 14.0098 35.1074C14.6543 33.4863 15.6016 32.0703 16.8516 30.8594C18.1211 29.6289 19.6836 28.6523 21.5391 27.9297C23.4141 27.207 25.5918 26.8457 28.0723 26.8457C28.6777 26.8457 29.3223 26.9141 30.0059 27.0508C30.6895 27.1875 31.373 27.3926 32.0566 27.666C32.7402 27.9199 33.4141 28.252 34.0781 28.6621C34.7617 29.0527 35.3965 29.5117 35.9824 30.0391L34.7227 32.0312Z" fill="black"/>
</g>
</svg>
